<?xml version="1.0" encoding="UTF-8" standalone="no"?>
<!DOCTYPE svg PUBLIC "-//W3C//DTD SVG 1.1//EN"
 "http://www.w3.org/Graphics/SVG/1.1/DTD/svg11.dtd">
<!-- Generated by graphviz version 2.47.0 (20210316.0004)
 -->
<!-- Title: dependencies Pages: 1 -->
<svg width="4273pt" height="284pt"
 viewBox="0.00 0.00 4273.00 284.00" xmlns="http://www.w3.org/2000/svg" xmlns:xlink="http://www.w3.org/1999/xlink">
<g id="graph0" class="graph" transform="scale(1 1) rotate(0) translate(4 280)">
<title>dependencies</title>
<polygon fill="white" stroke="transparent" points="-4,4 -4,-280 4269,-280 4269,4 -4,4"/>
<text text-anchor="start" x="2111.51" y="-42.4" font-family="Times-12" font-weight="bold" font-size="14.00">Legend</text>
<polygon fill="#ffffb3" stroke="transparent" points="1898.5,-10 1898.5,-30 1918.5,-30 1918.5,-10 1898.5,-10"/>
<text text-anchor="start" x="1922.13" y="-15.4" font-family="Times-12" font-size="14.00"> &#160;Declarations</text>
<polygon fill="#8dd3c7" stroke="transparent" points="2011.5,-10 2011.5,-30 2031.5,-30 2031.5,-10 2011.5,-10"/>
<text text-anchor="start" x="2035.23" y="-15.4" font-family="Times-12" font-size="14.00"> &#160;Module</text>
<polygon fill="#80b1d3" stroke="transparent" points="2097.5,-10 2097.5,-30 2117.5,-30 2117.5,-10 2097.5,-10"/>
<text text-anchor="start" x="2121.28" y="-15.4" font-family="Times-12" font-size="14.00"> &#160;Bootstrap</text>
<polygon fill="#fdb462" stroke="transparent" points="2194.5,-10 2194.5,-30 2214.5,-30 2214.5,-10 2194.5,-10"/>
<text text-anchor="start" x="2218.17" y="-15.4" font-family="Times-12" font-size="14.00"> &#160;Providers</text>
<polygon fill="#fb8072" stroke="transparent" points="2290.5,-10 2290.5,-30 2310.5,-30 2310.5,-10 2290.5,-10"/>
<text text-anchor="start" x="2314.23" y="-15.4" font-family="Times-12" font-size="14.00"> &#160;Exports</text>
<g id="clust1" class="cluster">
<title>cluster_AppModule</title>
<polygon fill="none" stroke="black" stroke-dasharray="1,5" points="8,-70 8,-268 4257,-268 4257,-70 8,-70"/>
</g>
<g id="clust2" class="cluster">
<title>cluster_AppModule_declarations</title>
<polygon fill="none" stroke="black" points="168,-78 168,-130 4249,-130 4249,-78 168,-78"/>
</g>
<g id="clust27" class="cluster">
<title>cluster_AppModule_imports</title>
<polygon fill="none" stroke="black" points="16,-78 16,-130 160,-130 160,-78 16,-78"/>
</g>
<g id="clust29" class="cluster">
<title>cluster_AppModule_bootstrap</title>
<polygon fill="none" stroke="black" points="2206,-208 2206,-260 2330,-260 2330,-208 2206,-208"/>
</g>
<!-- AboutComponent -->
<g id="node1" class="node">
<title>AboutComponent</title>
<polygon fill="#ffffb3" stroke="black" points="4241.33,-122 4124.67,-122 4124.67,-86 4241.33,-86 4241.33,-122"/>
<text text-anchor="middle" x="4183" y="-99.8" font-family="Times,serif" font-size="14.00">AboutComponent</text>
</g>
<!-- AppModule -->
<g id="node25" class="node">
<title>AppModule</title>
<polygon fill="#8dd3c7" stroke="black" points="2309.66,-187 2306.66,-191 2285.66,-191 2282.66,-187 2226.34,-187 2226.34,-151 2309.66,-151 2309.66,-187"/>
<text text-anchor="middle" x="2268" y="-164.8" font-family="Times,serif" font-size="14.00">AppModule</text>
</g>
<!-- AboutComponent&#45;&gt;AppModule -->
<g id="edge1" class="edge">
<title>AboutComponent&#45;&gt;AppModule</title>
<path fill="none" stroke="black" d="M4183,-122.38C4183,-146.28 4183,-185 4183,-185 4183,-185 2319.78,-185 2319.78,-185"/>
<polygon fill="black" stroke="black" points="2319.78,-181.5 2309.78,-185 2319.78,-188.5 2319.78,-181.5"/>
</g>
<!-- AboutProfessionalComponent -->
<g id="node2" class="node">
<title>AboutProfessionalComponent</title>
<polygon fill="#ffffb3" stroke="black" points="4106.53,-122 3921.47,-122 3921.47,-86 4106.53,-86 4106.53,-122"/>
<text text-anchor="middle" x="4014" y="-99.8" font-family="Times,serif" font-size="14.00">AboutProfessionalComponent</text>
</g>
<!-- AboutProfessionalComponent&#45;&gt;AppModule -->
<g id="edge2" class="edge">
<title>AboutProfessionalComponent&#45;&gt;AppModule</title>
<path fill="none" stroke="black" d="M4014,-122.09C4014,-145.13 4014,-182 4014,-182 4014,-182 2319.87,-182 2319.87,-182"/>
<polygon fill="black" stroke="black" points="2319.87,-178.5 2309.87,-182 2319.87,-185.5 2319.87,-178.5"/>
</g>
<!-- AppComponent -->
<g id="node3" class="node">
<title>AppComponent</title>
<polygon fill="#ffffb3" stroke="black" points="3903.94,-122 3798.06,-122 3798.06,-86 3903.94,-86 3903.94,-122"/>
<text text-anchor="middle" x="3851" y="-99.8" font-family="Times,serif" font-size="14.00">AppComponent</text>
</g>
<!-- AppComponent&#45;&gt;AppModule -->
<g id="edge3" class="edge">
<title>AppComponent&#45;&gt;AppModule</title>
<path fill="none" stroke="black" d="M3851,-122.16C3851,-144.35 3851,-179 3851,-179 3851,-179 2319.93,-179 2319.93,-179"/>
<polygon fill="black" stroke="black" points="2319.93,-175.5 2309.93,-179 2319.93,-182.5 2319.93,-175.5"/>
</g>
<!-- CommentsComponent -->
<g id="node4" class="node">
<title>CommentsComponent</title>
<polygon fill="#ffffb3" stroke="black" points="3780,-122 3638,-122 3638,-86 3780,-86 3780,-122"/>
<text text-anchor="middle" x="3709" y="-99.8" font-family="Times,serif" font-size="14.00">CommentsComponent</text>
</g>
<!-- CommentsComponent&#45;&gt;AppModule -->
<g id="edge4" class="edge">
<title>CommentsComponent&#45;&gt;AppModule</title>
<path fill="none" stroke="black" d="M3709,-122.17C3709,-143.5 3709,-176 3709,-176 3709,-176 2319.96,-176 2319.96,-176"/>
<polygon fill="black" stroke="black" points="2319.96,-172.5 2309.96,-176 2319.96,-179.5 2319.96,-172.5"/>
</g>
<!-- ContactusComponent -->
<g id="node5" class="node">
<title>ContactusComponent</title>
<polygon fill="#ffffb3" stroke="black" points="3619.82,-122 3482.18,-122 3482.18,-86 3619.82,-86 3619.82,-122"/>
<text text-anchor="middle" x="3551" y="-99.8" font-family="Times,serif" font-size="14.00">ContactusComponent</text>
</g>
<!-- ContactusComponent&#45;&gt;AppModule -->
<g id="edge5" class="edge">
<title>ContactusComponent&#45;&gt;AppModule</title>
<path fill="none" stroke="black" d="M3551,-122.03C3551,-142.77 3551,-174 3551,-174 3551,-174 2319.96,-174 2319.96,-174"/>
<polygon fill="black" stroke="black" points="2319.96,-170.5 2309.96,-174 2319.96,-177.5 2319.96,-170.5"/>
</g>
<!-- FooterComponent -->
<g id="node6" class="node">
<title>FooterComponent</title>
<polygon fill="#ffffb3" stroke="black" points="3463.88,-122 3346.12,-122 3346.12,-86 3463.88,-86 3463.88,-122"/>
<text text-anchor="middle" x="3405" y="-99.8" font-family="Times,serif" font-size="14.00">FooterComponent</text>
</g>
<!-- FooterComponent&#45;&gt;AppModule -->
<g id="edge6" class="edge">
<title>FooterComponent&#45;&gt;AppModule</title>
<path fill="none" stroke="black" d="M3405,-122.31C3405,-142.15 3405,-171 3405,-171 3405,-171 2319.81,-171 2319.81,-171"/>
<polygon fill="black" stroke="black" points="2319.81,-167.5 2309.81,-171 2319.81,-174.5 2319.81,-167.5"/>
</g>
<!-- FormAdmComponent -->
<g id="node7" class="node">
<title>FormAdmComponent</title>
<polygon fill="#ffffb3" stroke="black" points="3327.66,-122 3188.34,-122 3188.34,-86 3327.66,-86 3327.66,-122"/>
<text text-anchor="middle" x="3258" y="-99.8" font-family="Times,serif" font-size="14.00">FormAdmComponent</text>
</g>
<!-- FormAdmComponent&#45;&gt;AppModule -->
<g id="edge7" class="edge">
<title>FormAdmComponent&#45;&gt;AppModule</title>
<path fill="none" stroke="black" d="M3258,-122.17C3258,-141.09 3258,-168 3258,-168 3258,-168 2319.91,-168 2319.91,-168"/>
<polygon fill="black" stroke="black" points="2319.91,-164.5 2309.91,-168 2319.91,-171.5 2319.91,-164.5"/>
</g>
<!-- FormClientComponent -->
<g id="node8" class="node">
<title>FormClientComponent</title>
<polygon fill="#ffffb3" stroke="black" points="3169.89,-122 3024.11,-122 3024.11,-86 3169.89,-86 3169.89,-122"/>
<text text-anchor="middle" x="3097" y="-99.8" font-family="Times,serif" font-size="14.00">FormClientComponent</text>
</g>
<!-- FormClientComponent&#45;&gt;AppModule -->
<g id="edge8" class="edge">
<title>FormClientComponent&#45;&gt;AppModule</title>
<path fill="none" stroke="black" d="M3097,-122.3C3097,-140.27 3097,-165 3097,-165 3097,-165 2319.68,-165 2319.68,-165"/>
<polygon fill="black" stroke="black" points="2319.68,-161.5 2309.68,-165 2319.68,-168.5 2319.68,-161.5"/>
</g>
<!-- FormProfessionalComponent -->
<g id="node9" class="node">
<title>FormProfessionalComponent</title>
<polygon fill="#ffffb3" stroke="black" points="3006.37,-122 2825.63,-122 2825.63,-86 3006.37,-86 3006.37,-122"/>
<text text-anchor="middle" x="2916" y="-99.8" font-family="Times,serif" font-size="14.00">FormProfessionalComponent</text>
</g>
<!-- FormProfessionalComponent&#45;&gt;AppModule -->
<g id="edge9" class="edge">
<title>FormProfessionalComponent&#45;&gt;AppModule</title>
<path fill="none" stroke="black" d="M2916,-122.02C2916,-139.37 2916,-163 2916,-163 2916,-163 2320.02,-163 2320.02,-163"/>
<polygon fill="black" stroke="black" points="2320.02,-159.5 2310.02,-163 2320.02,-166.5 2320.02,-159.5"/>
</g>
<!-- HomeComponent -->
<g id="node10" class="node">
<title>HomeComponent</title>
<polygon fill="#ffffb3" stroke="black" points="2807.55,-122 2692.45,-122 2692.45,-86 2807.55,-86 2807.55,-122"/>
<text text-anchor="middle" x="2750" y="-99.8" font-family="Times,serif" font-size="14.00">HomeComponent</text>
</g>
<!-- HomeComponent&#45;&gt;AppModule -->
<g id="edge10" class="edge">
<title>HomeComponent&#45;&gt;AppModule</title>
<path fill="none" stroke="black" d="M2750,-122.03C2750,-138.4 2750,-160 2750,-160 2750,-160 2319.93,-160 2319.93,-160"/>
<polygon fill="black" stroke="black" points="2319.93,-156.5 2309.93,-160 2319.93,-163.5 2319.93,-156.5"/>
</g>
<!-- InitialComponent -->
<g id="node11" class="node">
<title>InitialComponent</title>
<polygon fill="#ffffb3" stroke="black" points="2674.27,-122 2559.73,-122 2559.73,-86 2674.27,-86 2674.27,-122"/>
<text text-anchor="middle" x="2617" y="-99.8" font-family="Times,serif" font-size="14.00">InitialComponent</text>
</g>
<!-- InitialComponent&#45;&gt;AppModule -->
<g id="edge11" class="edge">
<title>InitialComponent&#45;&gt;AppModule</title>
<path fill="none" stroke="black" d="M2617,-122.24C2617,-137.57 2617,-157 2617,-157 2617,-157 2319.75,-157 2319.75,-157"/>
<polygon fill="black" stroke="black" points="2319.75,-153.5 2309.75,-157 2319.75,-160.5 2319.75,-153.5"/>
</g>
<!-- LoggedClientComponent -->
<g id="node12" class="node">
<title>LoggedClientComponent</title>
<polygon fill="#ffffb3" stroke="black" points="2541.32,-122 2382.68,-122 2382.68,-86 2541.32,-86 2541.32,-122"/>
<text text-anchor="middle" x="2462" y="-99.8" font-family="Times,serif" font-size="14.00">LoggedClientComponent</text>
</g>
<!-- LoggedClientComponent&#45;&gt;AppModule -->
<g id="edge12" class="edge">
<title>LoggedClientComponent&#45;&gt;AppModule</title>
<path fill="none" stroke="black" d="M2462,-122.05C2462,-136.37 2462,-154 2462,-154 2462,-154 2320.1,-154 2320.1,-154"/>
<polygon fill="black" stroke="black" points="2320.1,-150.5 2310.1,-154 2320.1,-157.5 2320.1,-150.5"/>
</g>
<!-- LoggedProfessionalComponent -->
<g id="node13" class="node">
<title>LoggedProfessionalComponent</title>
<polygon fill="#ffffb3" stroke="black" points="2364.8,-122 2171.2,-122 2171.2,-86 2364.8,-86 2364.8,-122"/>
<text text-anchor="middle" x="2268" y="-99.8" font-family="Times,serif" font-size="14.00">LoggedProfessionalComponent</text>
</g>
<!-- LoggedProfessionalComponent&#45;&gt;AppModule -->
<g id="edge13" class="edge">
<title>LoggedProfessionalComponent&#45;&gt;AppModule</title>
<path fill="none" stroke="black" d="M2268,-122.11C2268,-122.11 2268,-140.99 2268,-140.99"/>
<polygon fill="black" stroke="black" points="2264.5,-140.99 2268,-150.99 2271.5,-140.99 2264.5,-140.99"/>
</g>
<!-- LoginAdmComponent -->
<g id="node14" class="node">
<title>LoginAdmComponent</title>
<polygon fill="#ffffb3" stroke="black" points="2153.27,-122 2010.73,-122 2010.73,-86 2153.27,-86 2153.27,-122"/>
<text text-anchor="middle" x="2082" y="-99.8" font-family="Times,serif" font-size="14.00">LoginAdmComponent</text>
</g>
<!-- LoginAdmComponent&#45;&gt;AppModule -->
<g id="edge14" class="edge">
<title>LoginAdmComponent&#45;&gt;AppModule</title>
<path fill="none" stroke="black" d="M2082,-122.05C2082,-136.37 2082,-154 2082,-154 2082,-154 2216.26,-154 2216.26,-154"/>
<polygon fill="black" stroke="black" points="2216.26,-157.5 2226.26,-154 2216.26,-150.5 2216.26,-157.5"/>
</g>
<!-- LoginComponent -->
<g id="node15" class="node">
<title>LoginComponent</title>
<polygon fill="#ffffb3" stroke="black" points="1992.28,-122 1877.72,-122 1877.72,-86 1992.28,-86 1992.28,-122"/>
<text text-anchor="middle" x="1935" y="-99.8" font-family="Times,serif" font-size="14.00">LoginComponent</text>
</g>
<!-- LoginComponent&#45;&gt;AppModule -->
<g id="edge15" class="edge">
<title>LoginComponent&#45;&gt;AppModule</title>
<path fill="none" stroke="black" d="M1935,-122.24C1935,-137.57 1935,-157 1935,-157 1935,-157 2216.16,-157 2216.16,-157"/>
<polygon fill="black" stroke="black" points="2216.16,-160.5 2226.16,-157 2216.16,-153.5 2216.16,-160.5"/>
</g>
<!-- NavbaroffComponent -->
<g id="node16" class="node">
<title>NavbaroffComponent</title>
<polygon fill="#ffffb3" stroke="black" points="1859.35,-122 1720.65,-122 1720.65,-86 1859.35,-86 1859.35,-122"/>
<text text-anchor="middle" x="1790" y="-99.8" font-family="Times,serif" font-size="14.00">NavbaroffComponent</text>
</g>
<!-- NavbaroffComponent&#45;&gt;AppModule -->
<g id="edge16" class="edge">
<title>NavbaroffComponent&#45;&gt;AppModule</title>
<path fill="none" stroke="black" d="M1790,-122.03C1790,-138.4 1790,-160 1790,-160 1790,-160 2216,-160 2216,-160"/>
<polygon fill="black" stroke="black" points="2216,-163.5 2226,-160 2216,-156.5 2216,-163.5"/>
</g>
<!-- NavbaronComponent -->
<g id="node17" class="node">
<title>NavbaronComponent</title>
<polygon fill="#ffffb3" stroke="black" points="1702.03,-122 1565.97,-122 1565.97,-86 1702.03,-86 1702.03,-122"/>
<text text-anchor="middle" x="1634" y="-99.8" font-family="Times,serif" font-size="14.00">NavbaronComponent</text>
</g>
<!-- NavbaronComponent&#45;&gt;AppModule -->
<g id="edge17" class="edge">
<title>NavbaronComponent&#45;&gt;AppModule</title>
<path fill="none" stroke="black" d="M1634,-122.02C1634,-139.37 1634,-163 1634,-163 1634,-163 2215.91,-163 2215.91,-163"/>
<polygon fill="black" stroke="black" points="2215.91,-166.5 2225.91,-163 2215.91,-159.5 2215.91,-166.5"/>
</g>
<!-- PersonalDataComponent -->
<g id="node18" class="node">
<title>PersonalDataComponent</title>
<polygon fill="#ffffb3" stroke="black" points="1547.97,-122 1392.03,-122 1392.03,-86 1547.97,-86 1547.97,-122"/>
<text text-anchor="middle" x="1470" y="-99.8" font-family="Times,serif" font-size="14.00">PersonalDataComponent</text>
</g>
<!-- PersonalDataComponent&#45;&gt;AppModule -->
<g id="edge18" class="edge">
<title>PersonalDataComponent&#45;&gt;AppModule</title>
<path fill="none" stroke="black" d="M1470,-122.3C1470,-140.27 1470,-165 1470,-165 1470,-165 2216.22,-165 2216.22,-165"/>
<polygon fill="black" stroke="black" points="2216.22,-168.5 2226.22,-165 2216.22,-161.5 2216.22,-168.5"/>
</g>
<!-- ProfessionalScheduleComponent -->
<g id="node19" class="node">
<title>ProfessionalScheduleComponent</title>
<polygon fill="#ffffb3" stroke="black" points="1373.85,-122 1172.15,-122 1172.15,-86 1373.85,-86 1373.85,-122"/>
<text text-anchor="middle" x="1273" y="-99.8" font-family="Times,serif" font-size="14.00">ProfessionalScheduleComponent</text>
</g>
<!-- ProfessionalScheduleComponent&#45;&gt;AppModule -->
<g id="edge19" class="edge">
<title>ProfessionalScheduleComponent&#45;&gt;AppModule</title>
<path fill="none" stroke="black" d="M1273,-122.17C1273,-141.09 1273,-168 1273,-168 1273,-168 2216.2,-168 2216.2,-168"/>
<polygon fill="black" stroke="black" points="2216.2,-171.5 2226.2,-168 2216.2,-164.5 2216.2,-171.5"/>
</g>
<!-- ProfileProfessionalComponent -->
<g id="node20" class="node">
<title>ProfileProfessionalComponent</title>
<polygon fill="#ffffb3" stroke="black" points="1154.14,-122 965.86,-122 965.86,-86 1154.14,-86 1154.14,-122"/>
<text text-anchor="middle" x="1060" y="-99.8" font-family="Times,serif" font-size="14.00">ProfileProfessionalComponent</text>
</g>
<!-- ProfileProfessionalComponent&#45;&gt;AppModule -->
<g id="edge20" class="edge">
<title>ProfileProfessionalComponent&#45;&gt;AppModule</title>
<path fill="none" stroke="black" d="M1060,-122.31C1060,-142.15 1060,-171 1060,-171 1060,-171 2216.07,-171 2216.07,-171"/>
<polygon fill="black" stroke="black" points="2216.07,-174.5 2226.07,-171 2216.07,-167.5 2216.07,-174.5"/>
</g>
<!-- ResearchProfessionalComponent -->
<g id="node21" class="node">
<title>ResearchProfessionalComponent</title>
<polygon fill="#ffffb3" stroke="black" points="947.84,-122 746.16,-122 746.16,-86 947.84,-86 947.84,-122"/>
<text text-anchor="middle" x="847" y="-99.8" font-family="Times,serif" font-size="14.00">ResearchProfessionalComponent</text>
</g>
<!-- ResearchProfessionalComponent&#45;&gt;AppModule -->
<g id="edge21" class="edge">
<title>ResearchProfessionalComponent&#45;&gt;AppModule</title>
<path fill="none" stroke="black" d="M847,-122.03C847,-142.77 847,-174 847,-174 847,-174 2216.24,-174 2216.24,-174"/>
<polygon fill="black" stroke="black" points="2216.24,-177.5 2226.24,-174 2216.24,-170.5 2216.24,-177.5"/>
</g>
<!-- ScheduleTimeComponent -->
<g id="node22" class="node">
<title>ScheduleTimeComponent</title>
<polygon fill="#ffffb3" stroke="black" points="728.2,-122 565.8,-122 565.8,-86 728.2,-86 728.2,-122"/>
<text text-anchor="middle" x="647" y="-99.8" font-family="Times,serif" font-size="14.00">ScheduleTimeComponent</text>
</g>
<!-- ScheduleTimeComponent&#45;&gt;AppModule -->
<g id="edge22" class="edge">
<title>ScheduleTimeComponent&#45;&gt;AppModule</title>
<path fill="none" stroke="black" d="M647,-122.17C647,-143.5 647,-176 647,-176 647,-176 2216.3,-176 2216.3,-176"/>
<polygon fill="black" stroke="black" points="2216.3,-179.5 2226.3,-176 2216.3,-172.5 2216.3,-179.5"/>
</g>
<!-- SearchResultComponent -->
<g id="node23" class="node">
<title>SearchResultComponent</title>
<polygon fill="#ffffb3" stroke="black" points="547.7,-122 392.3,-122 392.3,-86 547.7,-86 547.7,-122"/>
<text text-anchor="middle" x="470" y="-99.8" font-family="Times,serif" font-size="14.00">SearchResultComponent</text>
</g>
<!-- SearchResultComponent&#45;&gt;AppModule -->
<g id="edge23" class="edge">
<title>SearchResultComponent&#45;&gt;AppModule</title>
<path fill="none" stroke="black" d="M470,-122.16C470,-144.35 470,-179 470,-179 470,-179 2216.2,-179 2216.2,-179"/>
<polygon fill="black" stroke="black" points="2216.2,-182.5 2226.2,-179 2216.2,-175.5 2216.2,-182.5"/>
</g>
<!-- ServicesProfessionalComponent -->
<g id="node24" class="node">
<title>ServicesProfessionalComponent</title>
<polygon fill="#ffffb3" stroke="black" points="373.96,-122 176.04,-122 176.04,-86 373.96,-86 373.96,-122"/>
<text text-anchor="middle" x="275" y="-99.8" font-family="Times,serif" font-size="14.00">ServicesProfessionalComponent</text>
</g>
<!-- ServicesProfessionalComponent&#45;&gt;AppModule -->
<g id="edge24" class="edge">
<title>ServicesProfessionalComponent&#45;&gt;AppModule</title>
<path fill="none" stroke="black" d="M275,-122.09C275,-145.13 275,-182 275,-182 275,-182 2215.91,-182 2215.91,-182"/>
<polygon fill="black" stroke="black" points="2215.91,-185.5 2225.91,-182 2215.91,-178.5 2215.91,-185.5"/>
</g>
<!-- AppComponent  -->
<g id="node27" class="node">
<title>AppComponent </title>
<polygon fill="#80b1d3" stroke="black" points="2322.44,-252 2213.56,-252 2213.56,-216 2322.44,-216 2322.44,-252"/>
<text text-anchor="middle" x="2268" y="-229.8" font-family="Times,serif" font-size="14.00">AppComponent </text>
</g>
<!-- AppModule&#45;&gt;AppComponent  -->
<g id="edge26" class="edge">
<title>AppModule&#45;&gt;AppComponent </title>
<path fill="none" stroke="black" stroke-dasharray="1,5" d="M2268,-187.11C2268,-187.11 2268,-205.99 2268,-205.99"/>
<polygon fill="black" stroke="black" points="2264.5,-205.99 2268,-215.99 2271.5,-205.99 2264.5,-205.99"/>
</g>
<!-- AppRoutingModule -->
<g id="node26" class="node">
<title>AppRoutingModule</title>
<polygon fill="#8dd3c7" stroke="black" points="152.27,-122 149.27,-126 128.27,-126 125.27,-122 23.73,-122 23.73,-86 152.27,-86 152.27,-122"/>
<text text-anchor="middle" x="88" y="-99.8" font-family="Times,serif" font-size="14.00">AppRoutingModule</text>
</g>
<!-- AppRoutingModule&#45;&gt;AppModule -->
<g id="edge25" class="edge">
<title>AppRoutingModule&#45;&gt;AppModule</title>
<path fill="none" stroke="black" d="M88,-122.38C88,-146.28 88,-185 88,-185 88,-185 2215.92,-185 2215.92,-185"/>
<polygon fill="black" stroke="black" points="2215.92,-188.5 2225.92,-185 2215.92,-181.5 2215.92,-188.5"/>
</g>
</g>
</svg>
