<?xml version="1.0" encoding="UTF-8" standalone="no"?>
<!DOCTYPE svg PUBLIC "-//W3C//DTD SVG 1.1//EN"
 "http://www.w3.org/Graphics/SVG/1.1/DTD/svg11.dtd">
<!-- Generated by graphviz version 2.47.0 (20210316.0004)
 -->
<!-- Title: dependencies Pages: 1 -->
<svg width="4273pt" height="284pt"
 viewBox="0.00 0.00 4273.00 284.00" xmlns="http://www.w3.org/2000/svg" xmlns:xlink="http://www.w3.org/1999/xlink">
<g id="graph0" class="graph" transform="scale(1 1) rotate(0) translate(4 280)">
<title>dependencies</title>
<polygon fill="white" stroke="transparent" points="-4,4 -4,-280 4269,-280 4269,4 -4,4"/>
<text text-anchor="start" x="2111.51" y="-42.4" font-family="Times-12" font-weight="bold" font-size="14.00">Legend</text>
<polygon fill="#ffffb3" stroke="transparent" points="1898.5,-10 1898.5,-30 1918.5,-30 1918.5,-10 1898.5,-10"/>
<text text-anchor="start" x="1922.13" y="-15.4" font-family="Times-12" font-size="14.00"> &#160;Declarations</text>
<polygon fill="#8dd3c7" stroke="transparent" points="2011.5,-10 2011.5,-30 2031.5,-30 2031.5,-10 2011.5,-10"/>
<text text-anchor="start" x="2035.23" y="-15.4" font-family="Times-12" font-size="14.00"> &#160;Module</text>
<polygon fill="#80b1d3" stroke="transparent" points="2097.5,-10 2097.5,-30 2117.5,-30 2117.5,-10 2097.5,-10"/>
<text text-anchor="start" x="2121.28" y="-15.4" font-family="Times-12" font-size="14.00"> &#160;Bootstrap</text>
<polygon fill="#fdb462" stroke="transparent" points="2194.5,-10 2194.5,-30 2214.5,-30 2214.5,-10 2194.5,-10"/>
<text text-anchor="start" x="2218.17" y="-15.4" font-family="Times-12" font-size="14.00"> &#160;Providers</text>
<polygon fill="#fb8072" stroke="transparent" points="2290.5,-10 2290.5,-30 2310.5,-30 2310.5,-10 2290.5,-10"/>
<text text-anchor="start" x="2314.23" y="-15.4" font-family="Times-12" font-size="14.00"> &#160;Exports</text>
<g id="clust1" class="cluster">
<title>cluster_AppModule</title>
<polygon fill="none" stroke="black" stroke-dasharray="1,5" points="8,-70 8,-268 4257,-268 4257,-70 8,-70"/>
</g>
<g id="clust27" class="cluster">
<title>cluster_AppModule_imports</title>
<polygon fill="none" stroke="black" points="4105,-78 4105,-130 4249,-130 4249,-78 4105,-78"/>
</g>
<g id="clust29" class="cluster">
<title>cluster_AppModule_bootstrap</title>
<polygon fill="none" stroke="black" points="2248,-208 2248,-260 2372,-260 2372,-208 2248,-208"/>
</g>
<g id="clust2" class="cluster">
<title>cluster_AppModule_declarations</title>
<polygon fill="none" stroke="black" points="16,-78 16,-130 4097,-130 4097,-78 16,-78"/>
</g>
<!-- AboutComponent -->
<g id="node1" class="node">
<title>AboutComponent</title>
<polygon fill="#ffffb3" stroke="black" points="4089.33,-122 3972.67,-122 3972.67,-86 4089.33,-86 4089.33,-122"/>
<text text-anchor="middle" x="4031" y="-99.8" font-family="Times,serif" font-size="14.00">AboutComponent</text>
</g>
<!-- AppModule -->
<g id="node25" class="node">
<title>AppModule</title>
<polygon fill="#8dd3c7" stroke="black" points="2351.66,-187 2348.66,-191 2327.66,-191 2324.66,-187 2268.34,-187 2268.34,-151 2351.66,-151 2351.66,-187"/>
<text text-anchor="middle" x="2310" y="-164.8" font-family="Times,serif" font-size="14.00">AppModule</text>
</g>
<!-- AboutComponent&#45;&gt;AppModule -->
<g id="edge1" class="edge">
<title>AboutComponent&#45;&gt;AppModule</title>
<path fill="none" stroke="black" d="M4031,-122.09C4031,-145.13 4031,-182 4031,-182 4031,-182 2361.69,-182 2361.69,-182"/>
<polygon fill="black" stroke="black" points="2361.69,-178.5 2351.69,-182 2361.69,-185.5 2361.69,-178.5"/>
</g>
<!-- AboutProfessionalComponent -->
<g id="node2" class="node">
<title>AboutProfessionalComponent</title>
<polygon fill="#ffffb3" stroke="black" points="3954.53,-122 3769.47,-122 3769.47,-86 3954.53,-86 3954.53,-122"/>
<text text-anchor="middle" x="3862" y="-99.8" font-family="Times,serif" font-size="14.00">AboutProfessionalComponent</text>
</g>
<!-- AboutProfessionalComponent&#45;&gt;AppModule -->
<g id="edge2" class="edge">
<title>AboutProfessionalComponent&#45;&gt;AppModule</title>
<path fill="none" stroke="black" d="M3862,-122.16C3862,-144.35 3862,-179 3862,-179 3862,-179 2361.91,-179 2361.91,-179"/>
<polygon fill="black" stroke="black" points="2361.91,-175.5 2351.91,-179 2361.91,-182.5 2361.91,-175.5"/>
</g>
<!-- AppComponent -->
<g id="node3" class="node">
<title>AppComponent</title>
<polygon fill="#ffffb3" stroke="black" points="3751.94,-122 3646.06,-122 3646.06,-86 3751.94,-86 3751.94,-122"/>
<text text-anchor="middle" x="3699" y="-99.8" font-family="Times,serif" font-size="14.00">AppComponent</text>
</g>
<!-- AppComponent&#45;&gt;AppModule -->
<g id="edge3" class="edge">
<title>AppComponent&#45;&gt;AppModule</title>
<path fill="none" stroke="black" d="M3699,-122.17C3699,-143.5 3699,-176 3699,-176 3699,-176 2361.95,-176 2361.95,-176"/>
<polygon fill="black" stroke="black" points="2361.95,-172.5 2351.95,-176 2361.95,-179.5 2361.95,-172.5"/>
</g>
<!-- CommentsComponent -->
<g id="node4" class="node">
<title>CommentsComponent</title>
<polygon fill="#ffffb3" stroke="black" points="3628,-122 3486,-122 3486,-86 3628,-86 3628,-122"/>
<text text-anchor="middle" x="3557" y="-99.8" font-family="Times,serif" font-size="14.00">CommentsComponent</text>
</g>
<!-- CommentsComponent&#45;&gt;AppModule -->
<g id="edge4" class="edge">
<title>CommentsComponent&#45;&gt;AppModule</title>
<path fill="none" stroke="black" d="M3557,-122.03C3557,-142.77 3557,-174 3557,-174 3557,-174 2361.85,-174 2361.85,-174"/>
<polygon fill="black" stroke="black" points="2361.85,-170.5 2351.85,-174 2361.85,-177.5 2361.85,-170.5"/>
</g>
<!-- ContactusComponent -->
<g id="node5" class="node">
<title>ContactusComponent</title>
<polygon fill="#ffffb3" stroke="black" points="3467.82,-122 3330.18,-122 3330.18,-86 3467.82,-86 3467.82,-122"/>
<text text-anchor="middle" x="3399" y="-99.8" font-family="Times,serif" font-size="14.00">ContactusComponent</text>
</g>
<!-- ContactusComponent&#45;&gt;AppModule -->
<g id="edge5" class="edge">
<title>ContactusComponent&#45;&gt;AppModule</title>
<path fill="none" stroke="black" d="M3399,-122.31C3399,-142.15 3399,-171 3399,-171 3399,-171 2361.69,-171 2361.69,-171"/>
<polygon fill="black" stroke="black" points="2361.69,-167.5 2351.69,-171 2361.69,-174.5 2361.69,-167.5"/>
</g>
<!-- FooterComponent -->
<g id="node6" class="node">
<title>FooterComponent</title>
<polygon fill="#ffffb3" stroke="black" points="3311.88,-122 3194.12,-122 3194.12,-86 3311.88,-86 3311.88,-122"/>
<text text-anchor="middle" x="3253" y="-99.8" font-family="Times,serif" font-size="14.00">FooterComponent</text>
</g>
<!-- FooterComponent&#45;&gt;AppModule -->
<g id="edge6" class="edge">
<title>FooterComponent&#45;&gt;AppModule</title>
<path fill="none" stroke="black" d="M3253,-122.17C3253,-141.09 3253,-168 3253,-168 3253,-168 2361.74,-168 2361.74,-168"/>
<polygon fill="black" stroke="black" points="2361.74,-164.5 2351.74,-168 2361.74,-171.5 2361.74,-164.5"/>
</g>
<!-- FormAdmComponent -->
<g id="node7" class="node">
<title>FormAdmComponent</title>
<polygon fill="#ffffb3" stroke="black" points="3175.66,-122 3036.34,-122 3036.34,-86 3175.66,-86 3175.66,-122"/>
<text text-anchor="middle" x="3106" y="-99.8" font-family="Times,serif" font-size="14.00">FormAdmComponent</text>
</g>
<!-- FormAdmComponent&#45;&gt;AppModule -->
<g id="edge7" class="edge">
<title>FormAdmComponent&#45;&gt;AppModule</title>
<path fill="none" stroke="black" d="M3106,-122.3C3106,-140.27 3106,-165 3106,-165 3106,-165 2361.68,-165 2361.68,-165"/>
<polygon fill="black" stroke="black" points="2361.68,-161.5 2351.68,-165 2361.68,-168.5 2361.68,-161.5"/>
</g>
<!-- FormClientComponent -->
<g id="node8" class="node">
<title>FormClientComponent</title>
<polygon fill="#ffffb3" stroke="black" points="3017.89,-122 2872.11,-122 2872.11,-86 3017.89,-86 3017.89,-122"/>
<text text-anchor="middle" x="2945" y="-99.8" font-family="Times,serif" font-size="14.00">FormClientComponent</text>
</g>
<!-- FormClientComponent&#45;&gt;AppModule -->
<g id="edge8" class="edge">
<title>FormClientComponent&#45;&gt;AppModule</title>
<path fill="none" stroke="black" d="M2945,-122.02C2945,-139.37 2945,-163 2945,-163 2945,-163 2361.66,-163 2361.66,-163"/>
<polygon fill="black" stroke="black" points="2361.66,-159.5 2351.66,-163 2361.66,-166.5 2361.66,-159.5"/>
</g>
<!-- FormProfessionalComponent -->
<g id="node9" class="node">
<title>FormProfessionalComponent</title>
<polygon fill="#ffffb3" stroke="black" points="2854.37,-122 2673.63,-122 2673.63,-86 2854.37,-86 2854.37,-122"/>
<text text-anchor="middle" x="2764" y="-99.8" font-family="Times,serif" font-size="14.00">FormProfessionalComponent</text>
</g>
<!-- FormProfessionalComponent&#45;&gt;AppModule -->
<g id="edge9" class="edge">
<title>FormProfessionalComponent&#45;&gt;AppModule</title>
<path fill="none" stroke="black" d="M2764,-122.03C2764,-138.4 2764,-160 2764,-160 2764,-160 2361.9,-160 2361.9,-160"/>
<polygon fill="black" stroke="black" points="2361.9,-156.5 2351.9,-160 2361.9,-163.5 2361.9,-156.5"/>
</g>
<!-- HomeComponent -->
<g id="node10" class="node">
<title>HomeComponent</title>
<polygon fill="#ffffb3" stroke="black" points="2655.55,-122 2540.45,-122 2540.45,-86 2655.55,-86 2655.55,-122"/>
<text text-anchor="middle" x="2598" y="-99.8" font-family="Times,serif" font-size="14.00">HomeComponent</text>
</g>
<!-- HomeComponent&#45;&gt;AppModule -->
<g id="edge10" class="edge">
<title>HomeComponent&#45;&gt;AppModule</title>
<path fill="none" stroke="black" d="M2598,-122.24C2598,-137.57 2598,-157 2598,-157 2598,-157 2361.88,-157 2361.88,-157"/>
<polygon fill="black" stroke="black" points="2361.88,-153.5 2351.88,-157 2361.88,-160.5 2361.88,-153.5"/>
</g>
<!-- InitialComponent -->
<g id="node11" class="node">
<title>InitialComponent</title>
<polygon fill="#ffffb3" stroke="black" points="2522.27,-122 2407.73,-122 2407.73,-86 2522.27,-86 2522.27,-122"/>
<text text-anchor="middle" x="2465" y="-99.8" font-family="Times,serif" font-size="14.00">InitialComponent</text>
</g>
<!-- InitialComponent&#45;&gt;AppModule -->
<g id="edge11" class="edge">
<title>InitialComponent&#45;&gt;AppModule</title>
<path fill="none" stroke="black" d="M2465,-122.05C2465,-136.37 2465,-154 2465,-154 2465,-154 2361.95,-154 2361.95,-154"/>
<polygon fill="black" stroke="black" points="2361.95,-150.5 2351.95,-154 2361.95,-157.5 2361.95,-150.5"/>
</g>
<!-- LoggedClientComponent -->
<g id="node12" class="node">
<title>LoggedClientComponent</title>
<polygon fill="#ffffb3" stroke="black" points="2389.32,-122 2230.68,-122 2230.68,-86 2389.32,-86 2389.32,-122"/>
<text text-anchor="middle" x="2310" y="-99.8" font-family="Times,serif" font-size="14.00">LoggedClientComponent</text>
</g>
<!-- LoggedClientComponent&#45;&gt;AppModule -->
<g id="edge12" class="edge">
<title>LoggedClientComponent&#45;&gt;AppModule</title>
<path fill="none" stroke="black" d="M2310,-122.11C2310,-122.11 2310,-140.99 2310,-140.99"/>
<polygon fill="black" stroke="black" points="2306.5,-140.99 2310,-150.99 2313.5,-140.99 2306.5,-140.99"/>
</g>
<!-- LoggedProfessionalComponent -->
<g id="node13" class="node">
<title>LoggedProfessionalComponent</title>
<polygon fill="#ffffb3" stroke="black" points="2212.8,-122 2019.2,-122 2019.2,-86 2212.8,-86 2212.8,-122"/>
<text text-anchor="middle" x="2116" y="-99.8" font-family="Times,serif" font-size="14.00">LoggedProfessionalComponent</text>
</g>
<!-- LoggedProfessionalComponent&#45;&gt;AppModule -->
<g id="edge13" class="edge">
<title>LoggedProfessionalComponent&#45;&gt;AppModule</title>
<path fill="none" stroke="black" d="M2116,-122.05C2116,-136.37 2116,-154 2116,-154 2116,-154 2257.9,-154 2257.9,-154"/>
<polygon fill="black" stroke="black" points="2257.9,-157.5 2267.9,-154 2257.9,-150.5 2257.9,-157.5"/>
</g>
<!-- LoginAdmComponent -->
<g id="node14" class="node">
<title>LoginAdmComponent</title>
<polygon fill="#ffffb3" stroke="black" points="2001.27,-122 1858.73,-122 1858.73,-86 2001.27,-86 2001.27,-122"/>
<text text-anchor="middle" x="1930" y="-99.8" font-family="Times,serif" font-size="14.00">LoginAdmComponent</text>
</g>
<!-- LoginAdmComponent&#45;&gt;AppModule -->
<g id="edge14" class="edge">
<title>LoginAdmComponent&#45;&gt;AppModule</title>
<path fill="none" stroke="black" d="M1930,-122.24C1930,-137.57 1930,-157 1930,-157 1930,-157 2258.25,-157 2258.25,-157"/>
<polygon fill="black" stroke="black" points="2258.25,-160.5 2268.25,-157 2258.25,-153.5 2258.25,-160.5"/>
</g>
<!-- LoginComponent -->
<g id="node15" class="node">
<title>LoginComponent</title>
<polygon fill="#ffffb3" stroke="black" points="1840.28,-122 1725.72,-122 1725.72,-86 1840.28,-86 1840.28,-122"/>
<text text-anchor="middle" x="1783" y="-99.8" font-family="Times,serif" font-size="14.00">LoginComponent</text>
</g>
<!-- LoginComponent&#45;&gt;AppModule -->
<g id="edge15" class="edge">
<title>LoginComponent&#45;&gt;AppModule</title>
<path fill="none" stroke="black" d="M1783,-122.03C1783,-138.4 1783,-160 1783,-160 1783,-160 2258.21,-160 2258.21,-160"/>
<polygon fill="black" stroke="black" points="2258.21,-163.5 2268.21,-160 2258.21,-156.5 2258.21,-163.5"/>
</g>
<!-- NavbaroffComponent -->
<g id="node16" class="node">
<title>NavbaroffComponent</title>
<polygon fill="#ffffb3" stroke="black" points="1707.35,-122 1568.65,-122 1568.65,-86 1707.35,-86 1707.35,-122"/>
<text text-anchor="middle" x="1638" y="-99.8" font-family="Times,serif" font-size="14.00">NavbaroffComponent</text>
</g>
<!-- NavbaroffComponent&#45;&gt;AppModule -->
<g id="edge16" class="edge">
<title>NavbaroffComponent&#45;&gt;AppModule</title>
<path fill="none" stroke="black" d="M1638,-122.02C1638,-139.37 1638,-163 1638,-163 1638,-163 2258.22,-163 2258.22,-163"/>
<polygon fill="black" stroke="black" points="2258.22,-166.5 2268.22,-163 2258.22,-159.5 2258.22,-166.5"/>
</g>
<!-- NavbaronComponent -->
<g id="node17" class="node">
<title>NavbaronComponent</title>
<polygon fill="#ffffb3" stroke="black" points="1550.03,-122 1413.97,-122 1413.97,-86 1550.03,-86 1550.03,-122"/>
<text text-anchor="middle" x="1482" y="-99.8" font-family="Times,serif" font-size="14.00">NavbaronComponent</text>
</g>
<!-- NavbaronComponent&#45;&gt;AppModule -->
<g id="edge17" class="edge">
<title>NavbaronComponent&#45;&gt;AppModule</title>
<path fill="none" stroke="black" d="M1482,-122.3C1482,-140.27 1482,-165 1482,-165 1482,-165 2258.09,-165 2258.09,-165"/>
<polygon fill="black" stroke="black" points="2258.09,-168.5 2268.09,-165 2258.09,-161.5 2258.09,-168.5"/>
</g>
<!-- PersonalDataComponent -->
<g id="node18" class="node">
<title>PersonalDataComponent</title>
<polygon fill="#ffffb3" stroke="black" points="1395.97,-122 1240.03,-122 1240.03,-86 1395.97,-86 1395.97,-122"/>
<text text-anchor="middle" x="1318" y="-99.8" font-family="Times,serif" font-size="14.00">PersonalDataComponent</text>
</g>
<!-- PersonalDataComponent&#45;&gt;AppModule -->
<g id="edge18" class="edge">
<title>PersonalDataComponent&#45;&gt;AppModule</title>
<path fill="none" stroke="black" d="M1318,-122.17C1318,-141.09 1318,-168 1318,-168 1318,-168 2258.32,-168 2258.32,-168"/>
<polygon fill="black" stroke="black" points="2258.32,-171.5 2268.32,-168 2258.32,-164.5 2258.32,-171.5"/>
</g>
<!-- ProfessionalScheduleComponent -->
<g id="node19" class="node">
<title>ProfessionalScheduleComponent</title>
<polygon fill="#ffffb3" stroke="black" points="1221.85,-122 1020.15,-122 1020.15,-86 1221.85,-86 1221.85,-122"/>
<text text-anchor="middle" x="1121" y="-99.8" font-family="Times,serif" font-size="14.00">ProfessionalScheduleComponent</text>
</g>
<!-- ProfessionalScheduleComponent&#45;&gt;AppModule -->
<g id="edge19" class="edge">
<title>ProfessionalScheduleComponent&#45;&gt;AppModule</title>
<path fill="none" stroke="black" d="M1121,-122.31C1121,-142.15 1121,-171 1121,-171 1121,-171 2258.03,-171 2258.03,-171"/>
<polygon fill="black" stroke="black" points="2258.03,-174.5 2268.03,-171 2258.03,-167.5 2258.03,-174.5"/>
</g>
<!-- ProfileProfessionalComponent -->
<g id="node20" class="node">
<title>ProfileProfessionalComponent</title>
<polygon fill="#ffffb3" stroke="black" points="1002.14,-122 813.86,-122 813.86,-86 1002.14,-86 1002.14,-122"/>
<text text-anchor="middle" x="908" y="-99.8" font-family="Times,serif" font-size="14.00">ProfileProfessionalComponent</text>
</g>
<!-- ProfileProfessionalComponent&#45;&gt;AppModule -->
<g id="edge20" class="edge">
<title>ProfileProfessionalComponent&#45;&gt;AppModule</title>
<path fill="none" stroke="black" d="M908,-122.03C908,-142.77 908,-174 908,-174 908,-174 2258.04,-174 2258.04,-174"/>
<polygon fill="black" stroke="black" points="2258.04,-177.5 2268.04,-174 2258.04,-170.5 2258.04,-177.5"/>
</g>
<!-- ResearchProfessionalComponent -->
<g id="node21" class="node">
<title>ResearchProfessionalComponent</title>
<polygon fill="#ffffb3" stroke="black" points="795.84,-122 594.16,-122 594.16,-86 795.84,-86 795.84,-122"/>
<text text-anchor="middle" x="695" y="-99.8" font-family="Times,serif" font-size="14.00">ResearchProfessionalComponent</text>
</g>
<!-- ResearchProfessionalComponent&#45;&gt;AppModule -->
<g id="edge21" class="edge">
<title>ResearchProfessionalComponent&#45;&gt;AppModule</title>
<path fill="none" stroke="black" d="M695,-122.17C695,-143.5 695,-176 695,-176 695,-176 2258.05,-176 2258.05,-176"/>
<polygon fill="black" stroke="black" points="2258.05,-179.5 2268.05,-176 2258.05,-172.5 2258.05,-179.5"/>
</g>
<!-- ScheduleTimeComponent -->
<g id="node22" class="node">
<title>ScheduleTimeComponent</title>
<polygon fill="#ffffb3" stroke="black" points="576.2,-122 413.8,-122 413.8,-86 576.2,-86 576.2,-122"/>
<text text-anchor="middle" x="495" y="-99.8" font-family="Times,serif" font-size="14.00">ScheduleTimeComponent</text>
</g>
<!-- ScheduleTimeComponent&#45;&gt;AppModule -->
<g id="edge22" class="edge">
<title>ScheduleTimeComponent&#45;&gt;AppModule</title>
<path fill="none" stroke="black" d="M495,-122.16C495,-144.35 495,-179 495,-179 495,-179 2258.25,-179 2258.25,-179"/>
<polygon fill="black" stroke="black" points="2258.25,-182.5 2268.25,-179 2258.25,-175.5 2258.25,-182.5"/>
</g>
<!-- SearchResultComponent -->
<g id="node23" class="node">
<title>SearchResultComponent</title>
<polygon fill="#ffffb3" stroke="black" points="395.7,-122 240.3,-122 240.3,-86 395.7,-86 395.7,-122"/>
<text text-anchor="middle" x="318" y="-99.8" font-family="Times,serif" font-size="14.00">SearchResultComponent</text>
</g>
<!-- SearchResultComponent&#45;&gt;AppModule -->
<g id="edge23" class="edge">
<title>SearchResultComponent&#45;&gt;AppModule</title>
<path fill="none" stroke="black" d="M318,-122.09C318,-145.13 318,-182 318,-182 318,-182 2257.93,-182 2257.93,-182"/>
<polygon fill="black" stroke="black" points="2257.93,-185.5 2267.93,-182 2257.93,-178.5 2257.93,-185.5"/>
</g>
<!-- ServicesProfessionalComponent -->
<g id="node24" class="node">
<title>ServicesProfessionalComponent</title>
<polygon fill="#ffffb3" stroke="black" points="221.96,-122 24.04,-122 24.04,-86 221.96,-86 221.96,-122"/>
<text text-anchor="middle" x="123" y="-99.8" font-family="Times,serif" font-size="14.00">ServicesProfessionalComponent</text>
</g>
<!-- ServicesProfessionalComponent&#45;&gt;AppModule -->
<g id="edge24" class="edge">
<title>ServicesProfessionalComponent&#45;&gt;AppModule</title>
<path fill="none" stroke="black" d="M123,-122.38C123,-146.28 123,-185 123,-185 123,-185 2258.26,-185 2258.26,-185"/>
<polygon fill="black" stroke="black" points="2258.26,-188.5 2268.26,-185 2258.26,-181.5 2258.26,-188.5"/>
</g>
<!-- AppComponent  -->
<g id="node27" class="node">
<title>AppComponent </title>
<polygon fill="#80b1d3" stroke="black" points="2364.44,-252 2255.56,-252 2255.56,-216 2364.44,-216 2364.44,-252"/>
<text text-anchor="middle" x="2310" y="-229.8" font-family="Times,serif" font-size="14.00">AppComponent </text>
</g>
<!-- AppModule&#45;&gt;AppComponent  -->
<g id="edge26" class="edge">
<title>AppModule&#45;&gt;AppComponent </title>
<path fill="none" stroke="black" stroke-dasharray="1,5" d="M2310,-187.11C2310,-187.11 2310,-205.99 2310,-205.99"/>
<polygon fill="black" stroke="black" points="2306.5,-205.99 2310,-215.99 2313.5,-205.99 2306.5,-205.99"/>
</g>
<!-- AppRoutingModule -->
<g id="node26" class="node">
<title>AppRoutingModule</title>
<polygon fill="#8dd3c7" stroke="black" points="4241.27,-122 4238.27,-126 4217.27,-126 4214.27,-122 4112.73,-122 4112.73,-86 4241.27,-86 4241.27,-122"/>
<text text-anchor="middle" x="4177" y="-99.8" font-family="Times,serif" font-size="14.00">AppRoutingModule</text>
</g>
<!-- AppRoutingModule&#45;&gt;AppModule -->
<g id="edge25" class="edge">
<title>AppRoutingModule&#45;&gt;AppModule</title>
<path fill="none" stroke="black" d="M4177,-122.38C4177,-146.28 4177,-185 4177,-185 4177,-185 2362.06,-185 2362.06,-185"/>
<polygon fill="black" stroke="black" points="2362.06,-181.5 2352.06,-185 2362.06,-188.5 2362.06,-181.5"/>
</g>
</g>
</svg>
